<?xml version="1.0" encoding="UTF-8" standalone="no"?>
<!DOCTYPE svg PUBLIC "-//W3C//DTD SVG 1.1//EN"
 "http://www.w3.org/Graphics/SVG/1.1/DTD/svg11.dtd">
<!-- Generated by graphviz version 2.50.0 (0)
 -->
<!-- Title: packages_Pyreverse Pages: 1 -->
<svg width="8195pt" height="188pt"
 viewBox="0.00 0.00 8194.50 188.00" xmlns="http://www.w3.org/2000/svg" xmlns:xlink="http://www.w3.org/1999/xlink">
<g id="graph0" class="graph" transform="scale(1 1) rotate(0) translate(4 184)">
<title>packages_Pyreverse</title>
<polygon fill="white" stroke="transparent" points="-4,4 -4,-184 8190.5,-184 8190.5,4 -4,4"/>
<!-- __init__ -->
<g id="node1" class="node">
<title>__init__</title>
<polygon fill="none" stroke="black" points="6524,-36 6462,-36 6462,0 6524,0 6524,-36"/>
<text text-anchor="middle" x="6493" y="-14.3" font-family="Times New Roman,serif" font-size="14.00">__init__</text>
</g>
<!-- src.deepLearning.encoding.encoder -->
<g id="node2" class="node">
<title>src.deepLearning.encoding.encoder</title>
<polygon fill="none" stroke="black" points="6752,-36 6542,-36 6542,0 6752,0 6752,-36"/>
<text text-anchor="middle" x="6647" y="-14.3" font-family="Times New Roman,serif" font-size="14.00">src.deepLearning.encoding.encoder</text>
</g>
<!-- src.deepLearning.encoding.encoder.Encoder_BradleyTerry -->
<g id="node3" class="node">
<title>src.deepLearning.encoding.encoder.Encoder_BradleyTerry</title>
<polygon fill="none" stroke="black" points="7515.5,-108 7178.5,-108 7178.5,-72 7515.5,-72 7515.5,-108"/>
<text text-anchor="middle" x="7347" y="-86.3" font-family="Times New Roman,serif" font-size="14.00">src.deepLearning.encoding.encoder.Encoder_BradleyTerry</text>
</g>
<!-- src.deepLearning.encoding.encoder.Encoder_X -->
<g id="node29" class="node">
<title>src.deepLearning.encoding.encoder.Encoder_X</title>
<polygon fill="none" stroke="black" points="4122.5,-180 3847.5,-180 3847.5,-144 4122.5,-144 4122.5,-180"/>
<text text-anchor="middle" x="3985" y="-158.3" font-family="Times New Roman,serif" font-size="14.00">src.deepLearning.encoding.encoder.Encoder_X</text>
</g>
<!-- src.deepLearning.encoding.encoder.Encoder_BradleyTerry&#45;&gt;src.deepLearning.encoding.encoder.Encoder_X -->
<g id="edge1" class="edge">
<title>src.deepLearning.encoding.encoder.Encoder_BradleyTerry&#45;&gt;src.deepLearning.encoding.encoder.Encoder_X</title>
<path fill="none" stroke="black" d="M7178.38,-107.44C7175.23,-107.64 7172.1,-107.83 7169,-108 6566.69,-141.72 4677.48,-156.47 4133.14,-160.08"/>
<polygon fill="black" stroke="black" points="4122.87,-160.15 4132.84,-155.58 4127.87,-160.12 4132.87,-160.08 4132.87,-160.08 4132.87,-160.08 4127.87,-160.12 4132.9,-164.58 4122.87,-160.15 4122.87,-160.15"/>
</g>
<!-- src.deepLearning.encoding.encoder.Encoder_BurdenWeight -->
<g id="node4" class="node">
<title>src.deepLearning.encoding.encoder.Encoder_BurdenWeight</title>
<polygon fill="none" stroke="black" points="344,-108 0,-108 0,-72 344,-72 344,-108"/>
<text text-anchor="middle" x="172" y="-86.3" font-family="Times New Roman,serif" font-size="14.00">src.deepLearning.encoding.encoder.Encoder_BurdenWeight</text>
</g>
<!-- src.deepLearning.encoding.encoder.Encoder_BurdenWeight&#45;&gt;src.deepLearning.encoding.encoder.Encoder_X -->
<g id="edge2" class="edge">
<title>src.deepLearning.encoding.encoder.Encoder_BurdenWeight&#45;&gt;src.deepLearning.encoding.encoder.Encoder_X</title>
<path fill="none" stroke="black" d="M344.42,-107.51C347.3,-107.68 350.16,-107.85 353,-108 1048.07,-145.65 3245.27,-157.78 3837,-160.4"/>
<polygon fill="black" stroke="black" points="3847.3,-160.45 3837.28,-164.91 3842.3,-160.43 3837.3,-160.41 3837.3,-160.41 3837.3,-160.41 3842.3,-160.43 3837.32,-155.91 3847.3,-160.45 3847.3,-160.45"/>
</g>
<!-- src.deepLearning.encoding.encoder.Encoder_CornerPos -->
<g id="node5" class="node">
<title>src.deepLearning.encoding.encoder.Encoder_CornerPos</title>
<polygon fill="none" stroke="black" points="684,-108 362,-108 362,-72 684,-72 684,-108"/>
<text text-anchor="middle" x="523" y="-86.3" font-family="Times New Roman,serif" font-size="14.00">src.deepLearning.encoding.encoder.Encoder_CornerPos</text>
</g>
<!-- src.deepLearning.encoding.encoder.Encoder_CornerPos&#45;&gt;src.deepLearning.encoding.encoder.Encoder_X -->
<g id="edge3" class="edge">
<title>src.deepLearning.encoding.encoder.Encoder_CornerPos&#45;&gt;src.deepLearning.encoding.encoder.Encoder_X</title>
<path fill="none" stroke="black" d="M684.04,-107.45C687.05,-107.64 690.04,-107.83 693,-108 1317.59,-144.19 3281.1,-157.24 3837.02,-160.26"/>
<polygon fill="black" stroke="black" points="3847.1,-160.32 3837.07,-164.76 3842.1,-160.29 3837.1,-160.26 3837.1,-160.26 3837.1,-160.26 3842.1,-160.29 3837.12,-155.76 3847.1,-160.32 3847.1,-160.32"/>
</g>
<!-- src.deepLearning.encoding.encoder.Encoder_CourseCondition -->
<g id="node6" class="node">
<title>src.deepLearning.encoding.encoder.Encoder_CourseCondition</title>
<polygon fill="none" stroke="black" points="1059.5,-108 702.5,-108 702.5,-72 1059.5,-72 1059.5,-108"/>
<text text-anchor="middle" x="881" y="-86.3" font-family="Times New Roman,serif" font-size="14.00">src.deepLearning.encoding.encoder.Encoder_CourseCondition</text>
</g>
<!-- src.deepLearning.encoding.encoder.Encoder_CourseCondition&#45;&gt;src.deepLearning.encoding.encoder.Encoder_X -->
<g id="edge4" class="edge">
<title>src.deepLearning.encoding.encoder.Encoder_CourseCondition&#45;&gt;src.deepLearning.encoding.encoder.Encoder_X</title>
<path fill="none" stroke="black" d="M1059.6,-107.46C1062.75,-107.65 1065.89,-107.83 1069,-108 1616.3,-137.68 3323.47,-155.07 3837.25,-159.72"/>
<polygon fill="black" stroke="black" points="3847.32,-159.81 3837.28,-164.22 3842.32,-159.77 3837.32,-159.72 3837.32,-159.72 3837.32,-159.72 3842.32,-159.77 3837.36,-155.22 3847.32,-159.81 3847.32,-159.81"/>
</g>
<!-- src.deepLearning.encoding.encoder.Encoder_CourseDistance -->
<g id="node7" class="node">
<title>src.deepLearning.encoding.encoder.Encoder_CourseDistance</title>
<polygon fill="none" stroke="black" points="1428,-108 1078,-108 1078,-72 1428,-72 1428,-108"/>
<text text-anchor="middle" x="1253" y="-86.3" font-family="Times New Roman,serif" font-size="14.00">src.deepLearning.encoding.encoder.Encoder_CourseDistance</text>
</g>
<!-- src.deepLearning.encoding.encoder.Encoder_CourseDistance&#45;&gt;src.deepLearning.encoding.encoder.Encoder_X -->
<g id="edge5" class="edge">
<title>src.deepLearning.encoding.encoder.Encoder_CourseDistance&#45;&gt;src.deepLearning.encoding.encoder.Encoder_X</title>
<path fill="none" stroke="black" d="M1428.28,-107.48C1431.21,-107.66 1434.12,-107.84 1437,-108 2348.32,-159.51 3445.5,-162.42 3837.2,-161.61"/>
<polygon fill="black" stroke="black" points="3847.46,-161.58 3837.47,-166.11 3842.46,-161.6 3837.46,-161.61 3837.46,-161.61 3837.46,-161.61 3842.46,-161.6 3837.45,-157.11 3847.46,-161.58 3847.46,-161.58"/>
</g>
<!-- src.deepLearning.encoding.encoder.Encoder_CumPerform -->
<g id="node8" class="node">
<title>src.deepLearning.encoding.encoder.Encoder_CumPerform</title>
<polygon fill="none" stroke="black" points="1783.5,-108 1446.5,-108 1446.5,-72 1783.5,-72 1783.5,-108"/>
<text text-anchor="middle" x="1615" y="-86.3" font-family="Times New Roman,serif" font-size="14.00">src.deepLearning.encoding.encoder.Encoder_CumPerform</text>
</g>
<!-- src.deepLearning.encoding.encoder.Encoder_CumPerform&#45;&gt;src.deepLearning.encoding.encoder.Encoder_X -->
<g id="edge6" class="edge">
<title>src.deepLearning.encoding.encoder.Encoder_CumPerform&#45;&gt;src.deepLearning.encoding.encoder.Encoder_X</title>
<path fill="none" stroke="black" d="M1783.62,-107.41C1786.77,-107.62 1789.9,-107.81 1793,-108 2561.5,-153.93 3483.82,-160.37 3837.29,-161.05"/>
<polygon fill="black" stroke="black" points="3847.32,-161.06 3837.31,-165.55 3842.32,-161.06 3837.32,-161.05 3837.32,-161.05 3837.32,-161.05 3842.32,-161.06 3837.33,-156.55 3847.32,-161.06 3847.32,-161.06"/>
</g>
<!-- src.deepLearning.encoding.encoder.Encoder_FatherBradleyTerry -->
<g id="node9" class="node">
<title>src.deepLearning.encoding.encoder.Encoder_FatherBradleyTerry</title>
<polygon fill="none" stroke="black" points="7141.5,-36 6770.5,-36 6770.5,0 7141.5,0 7141.5,-36"/>
<text text-anchor="middle" x="6956" y="-14.3" font-family="Times New Roman,serif" font-size="14.00">src.deepLearning.encoding.encoder.Encoder_FatherBradleyTerry</text>
</g>
<!-- src.deepLearning.encoding.encoder.Encoder_FatherBradleyTerry&#45;&gt;src.deepLearning.encoding.encoder.Encoder_BradleyTerry -->
<g id="edge7" class="edge">
<title>src.deepLearning.encoding.encoder.Encoder_FatherBradleyTerry&#45;&gt;src.deepLearning.encoding.encoder.Encoder_BradleyTerry</title>
<path fill="none" stroke="black" d="M7051.15,-36.03C7108.74,-46.34 7182.27,-59.51 7241.61,-70.13"/>
<polygon fill="black" stroke="black" points="7251.76,-71.95 7241.13,-74.62 7246.84,-71.07 7241.92,-70.19 7241.92,-70.19 7241.92,-70.19 7246.84,-71.07 7242.71,-65.76 7251.76,-71.95 7251.76,-71.95"/>
</g>
<!-- src.deepLearning.encoding.encoder.Encoder_HorseAge -->
<g id="node10" class="node">
<title>src.deepLearning.encoding.encoder.Encoder_HorseAge</title>
<polygon fill="none" stroke="black" points="2122,-108 1802,-108 1802,-72 2122,-72 2122,-108"/>
<text text-anchor="middle" x="1962" y="-86.3" font-family="Times New Roman,serif" font-size="14.00">src.deepLearning.encoding.encoder.Encoder_HorseAge</text>
</g>
<!-- src.deepLearning.encoding.encoder.Encoder_HorseAge&#45;&gt;src.deepLearning.encoding.encoder.Encoder_X -->
<g id="edge8" class="edge">
<title>src.deepLearning.encoding.encoder.Encoder_HorseAge&#45;&gt;src.deepLearning.encoding.encoder.Encoder_X</title>
<path fill="none" stroke="black" d="M2122.09,-107.4C2125.09,-107.61 2128.06,-107.81 2131,-108 2764.99,-148.9 3522.96,-158.24 3837.25,-160.37"/>
<polygon fill="black" stroke="black" points="3847.33,-160.44 3837.3,-164.87 3842.33,-160.4 3837.33,-160.37 3837.33,-160.37 3837.33,-160.37 3842.33,-160.4 3837.36,-155.87 3847.33,-160.44 3847.33,-160.44"/>
</g>
<!-- src.deepLearning.encoding.encoder.Encoder_HorseNum -->
<g id="node11" class="node">
<title>src.deepLearning.encoding.encoder.Encoder_HorseNum</title>
<polygon fill="none" stroke="black" points="2465.5,-108 2140.5,-108 2140.5,-72 2465.5,-72 2465.5,-108"/>
<text text-anchor="middle" x="2303" y="-86.3" font-family="Times New Roman,serif" font-size="14.00">src.deepLearning.encoding.encoder.Encoder_HorseNum</text>
</g>
<!-- src.deepLearning.encoding.encoder.Encoder_HorseNum&#45;&gt;src.deepLearning.encoding.encoder.Encoder_X -->
<g id="edge9" class="edge">
<title>src.deepLearning.encoding.encoder.Encoder_HorseNum&#45;&gt;src.deepLearning.encoding.encoder.Encoder_X</title>
<path fill="none" stroke="black" d="M2465.94,-107.37C2468.98,-107.59 2472.01,-107.8 2475,-108 2973.72,-141.36 3566.61,-154.42 3837.16,-158.92"/>
<polygon fill="black" stroke="black" points="3847.44,-159.09 3837.37,-163.42 3842.44,-159.01 3837.44,-158.93 3837.44,-158.93 3837.44,-158.93 3842.44,-159.01 3837.52,-154.43 3847.44,-159.09 3847.44,-159.09"/>
</g>
<!-- src.deepLearning.encoding.encoder.Encoder_HorseWeight -->
<g id="node12" class="node">
<title>src.deepLearning.encoding.encoder.Encoder_HorseWeight</title>
<polygon fill="none" stroke="black" points="2820,-108 2484,-108 2484,-72 2820,-72 2820,-108"/>
<text text-anchor="middle" x="2652" y="-86.3" font-family="Times New Roman,serif" font-size="14.00">src.deepLearning.encoding.encoder.Encoder_HorseWeight</text>
</g>
<!-- src.deepLearning.encoding.encoder.Encoder_HorseWeight&#45;&gt;src.deepLearning.encoding.encoder.Encoder_X -->
<g id="edge10" class="edge">
<title>src.deepLearning.encoding.encoder.Encoder_HorseWeight&#45;&gt;src.deepLearning.encoding.encoder.Encoder_X</title>
<path fill="none" stroke="black" d="M2820.15,-107.35C2823.12,-107.58 2826.07,-107.79 2829,-108 3190.75,-133.65 3617.1,-149.48 3837.09,-156.58"/>
<polygon fill="black" stroke="black" points="3847.41,-156.91 3837.27,-161.09 3842.41,-156.75 3837.41,-156.59 3837.41,-156.59 3837.41,-156.59 3842.41,-156.75 3837.56,-152.1 3847.41,-156.91 3847.41,-156.91"/>
</g>
<!-- src.deepLearning.encoding.encoder.Encoder_Jockey -->
<g id="node13" class="node">
<title>src.deepLearning.encoding.encoder.Encoder_Jockey</title>
<polygon fill="none" stroke="black" points="3140,-108 2838,-108 2838,-72 3140,-72 3140,-108"/>
<text text-anchor="middle" x="2989" y="-86.3" font-family="Times New Roman,serif" font-size="14.00">src.deepLearning.encoding.encoder.Encoder_Jockey</text>
</g>
<!-- src.deepLearning.encoding.encoder.Encoder_Jockey&#45;&gt;src.deepLearning.encoding.encoder.Encoder_X -->
<g id="edge11" class="edge">
<title>src.deepLearning.encoding.encoder.Encoder_Jockey&#45;&gt;src.deepLearning.encoding.encoder.Encoder_X</title>
<path fill="none" stroke="black" d="M3140.15,-107.23C3143.13,-107.5 3146.08,-107.75 3149,-108 3389.71,-128.41 3670.01,-144.65 3837.19,-153.53"/>
<polygon fill="black" stroke="black" points="3847.29,-154.07 3837.07,-158.03 3842.3,-153.8 3837.3,-153.54 3837.3,-153.54 3837.3,-153.54 3842.3,-153.8 3837.54,-149.05 3847.29,-154.07 3847.29,-154.07"/>
</g>
<!-- src.deepLearning.encoding.encoder.Encoder_JockeyBradleyTerry -->
<g id="node14" class="node">
<title>src.deepLearning.encoding.encoder.Encoder_JockeyBradleyTerry</title>
<polygon fill="none" stroke="black" points="7534,-36 7160,-36 7160,0 7534,0 7534,-36"/>
<text text-anchor="middle" x="7347" y="-14.3" font-family="Times New Roman,serif" font-size="14.00">src.deepLearning.encoding.encoder.Encoder_JockeyBradleyTerry</text>
</g>
<!-- src.deepLearning.encoding.encoder.Encoder_JockeyBradleyTerry&#45;&gt;src.deepLearning.encoding.encoder.Encoder_BradleyTerry -->
<g id="edge12" class="edge">
<title>src.deepLearning.encoding.encoder.Encoder_JockeyBradleyTerry&#45;&gt;src.deepLearning.encoding.encoder.Encoder_BradleyTerry</title>
<path fill="none" stroke="black" d="M7347,-36.3C7347,-44.02 7347,-53.29 7347,-61.89"/>
<polygon fill="black" stroke="black" points="7347,-71.9 7342.5,-61.9 7347,-66.9 7347,-61.9 7347,-61.9 7347,-61.9 7347,-66.9 7351.5,-61.9 7347,-71.9 7347,-71.9"/>
</g>
<!-- src.deepLearning.encoding.encoder.Encoder_Last3f -->
<g id="node15" class="node">
<title>src.deepLearning.encoding.encoder.Encoder_Last3f</title>
<polygon fill="none" stroke="black" points="3457.5,-108 3158.5,-108 3158.5,-72 3457.5,-72 3457.5,-108"/>
<text text-anchor="middle" x="3308" y="-86.3" font-family="Times New Roman,serif" font-size="14.00">src.deepLearning.encoding.encoder.Encoder_Last3f</text>
</g>
<!-- src.deepLearning.encoding.encoder.Encoder_Last3f&#45;&gt;src.deepLearning.encoding.encoder.Encoder_X -->
<g id="edge13" class="edge">
<title>src.deepLearning.encoding.encoder.Encoder_Last3f&#45;&gt;src.deepLearning.encoding.encoder.Encoder_X</title>
<path fill="none" stroke="black" d="M3457.8,-107.04C3460.89,-107.36 3463.96,-107.68 3467,-108 3591.75,-121.05 3733.45,-135.52 3837.07,-146.04"/>
<polygon fill="black" stroke="black" points="3847.29,-147.08 3836.89,-150.55 3842.32,-146.58 3837.34,-146.07 3837.34,-146.07 3837.34,-146.07 3842.32,-146.58 3837.8,-141.6 3847.29,-147.08 3847.29,-147.08"/>
</g>
<!-- src.deepLearning.encoding.encoder.Encoder_LastRaceLeft -->
<g id="node16" class="node">
<title>src.deepLearning.encoding.encoder.Encoder_LastRaceLeft</title>
<polygon fill="none" stroke="black" points="3814,-108 3476,-108 3476,-72 3814,-72 3814,-108"/>
<text text-anchor="middle" x="3645" y="-86.3" font-family="Times New Roman,serif" font-size="14.00">src.deepLearning.encoding.encoder.Encoder_LastRaceLeft</text>
</g>
<!-- src.deepLearning.encoding.encoder.Encoder_LastRaceLeft&#45;&gt;src.deepLearning.encoding.encoder.Encoder_X -->
<g id="edge14" class="edge">
<title>src.deepLearning.encoding.encoder.Encoder_LastRaceLeft&#45;&gt;src.deepLearning.encoding.encoder.Encoder_X</title>
<path fill="none" stroke="black" d="M3727.74,-108.03C3777.4,-118.26 3840.7,-131.29 3892.08,-141.87"/>
<polygon fill="black" stroke="black" points="3902.19,-143.95 3891.48,-146.34 3897.29,-142.94 3892.39,-141.93 3892.39,-141.93 3892.39,-141.93 3897.29,-142.94 3893.3,-137.53 3902.19,-143.95 3902.19,-143.95"/>
</g>
<!-- src.deepLearning.encoding.encoder.Encoder_Margin -->
<g id="node17" class="node">
<title>src.deepLearning.encoding.encoder.Encoder_Margin</title>
<polygon fill="none" stroke="black" points="4137.5,-108 3832.5,-108 3832.5,-72 4137.5,-72 4137.5,-108"/>
<text text-anchor="middle" x="3985" y="-86.3" font-family="Times New Roman,serif" font-size="14.00">src.deepLearning.encoding.encoder.Encoder_Margin</text>
</g>
<!-- src.deepLearning.encoding.encoder.Encoder_Margin&#45;&gt;src.deepLearning.encoding.encoder.Encoder_X -->
<g id="edge15" class="edge">
<title>src.deepLearning.encoding.encoder.Encoder_Margin&#45;&gt;src.deepLearning.encoding.encoder.Encoder_X</title>
<path fill="none" stroke="black" d="M3985,-108.3C3985,-116.02 3985,-125.29 3985,-133.89"/>
<polygon fill="black" stroke="black" points="3985,-143.9 3980.5,-133.9 3985,-138.9 3985,-133.9 3985,-133.9 3985,-133.9 3985,-138.9 3989.5,-133.9 3985,-143.9 3985,-143.9"/>
</g>
<!-- src.deepLearning.encoding.encoder.Encoder_Money -->
<g id="node18" class="node">
<title>src.deepLearning.encoding.encoder.Encoder_Money</title>
<polygon fill="none" stroke="black" points="4460,-108 4156,-108 4156,-72 4460,-72 4460,-108"/>
<text text-anchor="middle" x="4308" y="-86.3" font-family="Times New Roman,serif" font-size="14.00">src.deepLearning.encoding.encoder.Encoder_Money</text>
</g>
<!-- src.deepLearning.encoding.encoder.Encoder_Money&#45;&gt;src.deepLearning.encoding.encoder.Encoder_X -->
<g id="edge16" class="edge">
<title>src.deepLearning.encoding.encoder.Encoder_Money&#45;&gt;src.deepLearning.encoding.encoder.Encoder_X</title>
<path fill="none" stroke="black" d="M4229.4,-108.03C4182.32,-118.24 4122.34,-131.24 4073.58,-141.8"/>
<polygon fill="black" stroke="black" points="4063.67,-143.95 4072.49,-137.43 4068.56,-142.89 4073.45,-141.83 4073.45,-141.83 4073.45,-141.83 4068.56,-142.89 4074.4,-146.23 4063.67,-143.95 4063.67,-143.95"/>
</g>
<!-- src.deepLearning.encoding.encoder.Encoder_MotherBradleyTerry -->
<g id="node19" class="node">
<title>src.deepLearning.encoding.encoder.Encoder_MotherBradleyTerry</title>
<polygon fill="none" stroke="black" points="7929.5,-36 7552.5,-36 7552.5,0 7929.5,0 7929.5,-36"/>
<text text-anchor="middle" x="7741" y="-14.3" font-family="Times New Roman,serif" font-size="14.00">src.deepLearning.encoding.encoder.Encoder_MotherBradleyTerry</text>
</g>
<!-- src.deepLearning.encoding.encoder.Encoder_MotherBradleyTerry&#45;&gt;src.deepLearning.encoding.encoder.Encoder_BradleyTerry -->
<g id="edge17" class="edge">
<title>src.deepLearning.encoding.encoder.Encoder_MotherBradleyTerry&#45;&gt;src.deepLearning.encoding.encoder.Encoder_BradleyTerry</title>
<path fill="none" stroke="black" d="M7645.12,-36.03C7586.97,-46.37 7512.69,-59.56 7452.83,-70.2"/>
<polygon fill="black" stroke="black" points="7442.97,-71.95 7452.03,-65.77 7447.89,-71.08 7452.81,-70.2 7452.81,-70.2 7452.81,-70.2 7447.89,-71.08 7453.6,-74.63 7442.97,-71.95 7442.97,-71.95"/>
</g>
<!-- src.deepLearning.encoding.encoder.Encoder_Pace -->
<g id="node20" class="node">
<title>src.deepLearning.encoding.encoder.Encoder_Pace</title>
<polygon fill="none" stroke="black" points="4768,-108 4478,-108 4478,-72 4768,-72 4768,-108"/>
<text text-anchor="middle" x="4623" y="-86.3" font-family="Times New Roman,serif" font-size="14.00">src.deepLearning.encoding.encoder.Encoder_Pace</text>
</g>
<!-- src.deepLearning.encoding.encoder.Encoder_Pace&#45;&gt;src.deepLearning.encoding.encoder.Encoder_X -->
<g id="edge18" class="edge">
<title>src.deepLearning.encoding.encoder.Encoder_Pace&#45;&gt;src.deepLearning.encoding.encoder.Encoder_X</title>
<path fill="none" stroke="black" d="M4477.91,-107.02C4474.91,-107.35 4471.94,-107.68 4469,-108 4356.2,-120.4 4228.6,-134.37 4132.75,-144.85"/>
<polygon fill="black" stroke="black" points="4122.7,-145.95 4132.15,-140.39 4127.67,-145.41 4132.64,-144.87 4132.64,-144.87 4132.64,-144.87 4127.67,-145.41 4133.13,-149.34 4122.7,-145.95 4122.7,-145.95"/>
</g>
<!-- src.deepLearning.encoding.encoder.Encoder_PostPosition -->
<g id="node21" class="node">
<title>src.deepLearning.encoding.encoder.Encoder_PostPosition</title>
<polygon fill="none" stroke="black" points="5118,-108 4786,-108 4786,-72 5118,-72 5118,-108"/>
<text text-anchor="middle" x="4952" y="-86.3" font-family="Times New Roman,serif" font-size="14.00">src.deepLearning.encoding.encoder.Encoder_PostPosition</text>
</g>
<!-- src.deepLearning.encoding.encoder.Encoder_PostPosition&#45;&gt;src.deepLearning.encoding.encoder.Encoder_X -->
<g id="edge19" class="edge">
<title>src.deepLearning.encoding.encoder.Encoder_PostPosition&#45;&gt;src.deepLearning.encoding.encoder.Encoder_X</title>
<path fill="none" stroke="black" d="M4785.74,-107.27C4782.81,-107.52 4779.89,-107.76 4777,-108 4552.73,-126.39 4292.33,-142.89 4133.14,-152.42"/>
<polygon fill="black" stroke="black" points="4122.8,-153.04 4132.52,-147.95 4127.79,-152.74 4132.79,-152.44 4132.79,-152.44 4132.79,-152.44 4127.79,-152.74 4133.05,-156.93 4122.8,-153.04 4122.8,-153.04"/>
</g>
<!-- src.deepLearning.encoding.encoder.Encoder_RaceStartTime -->
<g id="node22" class="node">
<title>src.deepLearning.encoding.encoder.Encoder_RaceStartTime</title>
<polygon fill="none" stroke="black" points="5483.5,-108 5136.5,-108 5136.5,-72 5483.5,-72 5483.5,-108"/>
<text text-anchor="middle" x="5310" y="-86.3" font-family="Times New Roman,serif" font-size="14.00">src.deepLearning.encoding.encoder.Encoder_RaceStartTime</text>
</g>
<!-- src.deepLearning.encoding.encoder.Encoder_RaceStartTime&#45;&gt;src.deepLearning.encoding.encoder.Encoder_X -->
<g id="edge20" class="edge">
<title>src.deepLearning.encoding.encoder.Encoder_RaceStartTime&#45;&gt;src.deepLearning.encoding.encoder.Encoder_X</title>
<path fill="none" stroke="black" d="M5136.15,-107.35C5133.08,-107.57 5130.02,-107.79 5127,-108 4770.57,-132.81 4350.72,-148.94 4132.89,-156.32"/>
<polygon fill="black" stroke="black" points="4122.67,-156.67 4132.52,-151.83 4127.67,-156.5 4132.67,-156.33 4132.67,-156.33 4132.67,-156.33 4127.67,-156.5 4132.82,-160.83 4122.67,-156.67 4122.67,-156.67"/>
</g>
<!-- src.deepLearning.encoding.encoder.Encoder_RankOneHot -->
<g id="node23" class="node">
<title>src.deepLearning.encoding.encoder.Encoder_RankOneHot</title>
<polygon fill="none" stroke="black" points="5838,-108 5502,-108 5502,-72 5838,-72 5838,-108"/>
<text text-anchor="middle" x="5670" y="-86.3" font-family="Times New Roman,serif" font-size="14.00">src.deepLearning.encoding.encoder.Encoder_RankOneHot</text>
</g>
<!-- src.deepLearning.encoding.encoder.Encoder_RankOneHot&#45;&gt;src.deepLearning.encoding.encoder.Encoder_X -->
<g id="edge21" class="edge">
<title>src.deepLearning.encoding.encoder.Encoder_RankOneHot&#45;&gt;src.deepLearning.encoding.encoder.Encoder_X</title>
<path fill="none" stroke="black" d="M5501.85,-107.33C5498.54,-107.56 5495.25,-107.79 5492,-108 4994.37,-140.48 4402.92,-153.97 4132.79,-158.75"/>
<polygon fill="black" stroke="black" points="4122.53,-158.93 4132.45,-154.25 4127.53,-158.84 4132.53,-158.75 4132.53,-158.75 4132.53,-158.75 4127.53,-158.84 4132.61,-163.25 4122.53,-158.93 4122.53,-158.93"/>
</g>
<!-- src.deepLearning.encoding.encoder.Encoder_Review -->
<g id="node24" class="node">
<title>src.deepLearning.encoding.encoder.Encoder_Review</title>
<polygon fill="none" stroke="black" points="6162,-108 5856,-108 5856,-72 6162,-72 6162,-108"/>
<text text-anchor="middle" x="6009" y="-86.3" font-family="Times New Roman,serif" font-size="14.00">src.deepLearning.encoding.encoder.Encoder_Review</text>
</g>
<!-- src.deepLearning.encoding.encoder.Encoder_Review&#45;&gt;src.deepLearning.encoding.encoder.Encoder_X -->
<g id="edge22" class="edge">
<title>src.deepLearning.encoding.encoder.Encoder_Review&#45;&gt;src.deepLearning.encoding.encoder.Encoder_X</title>
<path fill="none" stroke="black" d="M5855.97,-107.37C5852.96,-107.59 5849.96,-107.8 5847,-108 5209.97,-150.43 4448.12,-158.94 4132.81,-160.61"/>
<polygon fill="black" stroke="black" points="4122.7,-160.66 4132.67,-156.11 4127.7,-160.64 4132.7,-160.61 4132.7,-160.61 4132.7,-160.61 4127.7,-160.64 4132.72,-165.11 4122.7,-160.66 4122.7,-160.66"/>
</g>
<!-- src.deepLearning.encoding.encoder.Encoder_Template -->
<g id="node25" class="node">
<title>src.deepLearning.encoding.encoder.Encoder_Template</title>
<polygon fill="none" stroke="black" points="7850,-108 7534,-108 7534,-72 7850,-72 7850,-108"/>
<text text-anchor="middle" x="7692" y="-86.3" font-family="Times New Roman,serif" font-size="14.00">src.deepLearning.encoding.encoder.Encoder_Template</text>
</g>
<!-- src.deepLearning.encoding.encoder.Encoder_Template&#45;&gt;src.deepLearning.encoding.encoder.Encoder_X -->
<g id="edge23" class="edge">
<title>src.deepLearning.encoding.encoder.Encoder_Template&#45;&gt;src.deepLearning.encoding.encoder.Encoder_X</title>
<path fill="none" stroke="black" d="M7533.8,-107.45C7530.85,-107.65 7527.91,-107.83 7525,-108 6849.03,-147.39 4714.46,-158.24 4132.69,-160.49"/>
<polygon fill="black" stroke="black" points="4122.56,-160.53 4132.54,-155.99 4127.56,-160.51 4132.56,-160.49 4132.56,-160.49 4132.56,-160.49 4127.56,-160.51 4132.58,-164.99 4122.56,-160.53 4122.56,-160.53"/>
</g>
<!-- src.deepLearning.encoding.encoder.selfcheck -->
<g id="node30" class="node">
<title>src.deepLearning.encoding.encoder.selfcheck</title>
<polygon fill="none" stroke="black" points="7824,-180 7560,-180 7560,-144 7824,-144 7824,-180"/>
<text text-anchor="middle" x="7692" y="-158.3" font-family="Times New Roman,serif" font-size="14.00">src.deepLearning.encoding.encoder.selfcheck</text>
</g>
<!-- src.deepLearning.encoding.encoder.Encoder_Template&#45;&gt;src.deepLearning.encoding.encoder.selfcheck -->
<g id="edge24" class="edge">
<title>src.deepLearning.encoding.encoder.Encoder_Template&#45;&gt;src.deepLearning.encoding.encoder.selfcheck</title>
<path fill="none" stroke="black" d="M7692,-108.3C7692,-116.02 7692,-125.29 7692,-133.89"/>
<polygon fill="black" stroke="black" points="7692,-143.9 7687.5,-133.9 7692,-138.9 7692,-133.9 7692,-133.9 7692,-133.9 7692,-138.9 7696.5,-133.9 7692,-143.9 7692,-143.9"/>
</g>
<!-- src.deepLearning.encoding.encoder.Encoder_Time -->
<g id="node26" class="node">
<title>src.deepLearning.encoding.encoder.Encoder_Time</title>
<polygon fill="none" stroke="black" points="6474,-108 6180,-108 6180,-72 6474,-72 6474,-108"/>
<text text-anchor="middle" x="6327" y="-86.3" font-family="Times New Roman,serif" font-size="14.00">src.deepLearning.encoding.encoder.Encoder_Time</text>
</g>
<!-- src.deepLearning.encoding.encoder.Encoder_Time&#45;&gt;src.deepLearning.encoding.encoder.Encoder_X -->
<g id="edge25" class="edge">
<title>src.deepLearning.encoding.encoder.Encoder_Time&#45;&gt;src.deepLearning.encoding.encoder.Encoder_X</title>
<path fill="none" stroke="black" d="M6179.64,-107.39C6176.74,-107.61 6173.85,-107.81 6171,-108 5405.16,-158.92 4485.5,-162.47 4132.68,-161.71"/>
<polygon fill="black" stroke="black" points="4122.66,-161.69 4132.67,-157.21 4127.66,-161.7 4132.66,-161.71 4132.66,-161.71 4132.66,-161.71 4127.66,-161.7 4132.65,-166.21 4122.66,-161.69 4122.66,-161.69"/>
</g>
<!-- src.deepLearning.encoding.encoder.Encoder_Umamusume -->
<g id="node27" class="node">
<title>src.deepLearning.encoding.encoder.Encoder_Umamusume</title>
<polygon fill="none" stroke="black" points="6831.5,-108 6492.5,-108 6492.5,-72 6831.5,-72 6831.5,-108"/>
<text text-anchor="middle" x="6662" y="-86.3" font-family="Times New Roman,serif" font-size="14.00">src.deepLearning.encoding.encoder.Encoder_Umamusume</text>
</g>
<!-- src.deepLearning.encoding.encoder.Encoder_Umamusume&#45;&gt;src.deepLearning.encoding.encoder.Encoder_X -->
<g id="edge26" class="edge">
<title>src.deepLearning.encoding.encoder.Encoder_Umamusume&#45;&gt;src.deepLearning.encoding.encoder.Encoder_X</title>
<path fill="none" stroke="black" d="M6492.43,-107.42C6489.26,-107.63 6486.12,-107.82 6483,-108 5591.78,-159.7 4519.1,-162.53 4132.68,-161.65"/>
<polygon fill="black" stroke="black" points="4122.57,-161.63 4132.58,-157.15 4127.57,-161.64 4132.57,-161.65 4132.57,-161.65 4132.57,-161.65 4127.57,-161.64 4132.56,-166.15 4122.57,-161.63 4122.57,-161.63"/>
</g>
<!-- src.deepLearning.encoding.encoder.Encoder_Weather -->
<g id="node28" class="node">
<title>src.deepLearning.encoding.encoder.Encoder_Weather</title>
<polygon fill="none" stroke="black" points="7160,-108 6850,-108 6850,-72 7160,-72 7160,-108"/>
<text text-anchor="middle" x="7005" y="-86.3" font-family="Times New Roman,serif" font-size="14.00">src.deepLearning.encoding.encoder.Encoder_Weather</text>
</g>
<!-- src.deepLearning.encoding.encoder.Encoder_Weather&#45;&gt;src.deepLearning.encoding.encoder.Encoder_X -->
<g id="edge27" class="edge">
<title>src.deepLearning.encoding.encoder.Encoder_Weather&#45;&gt;src.deepLearning.encoding.encoder.Encoder_X</title>
<path fill="none" stroke="black" d="M6849.58,-107.38C6846.36,-107.6 6843.16,-107.81 6840,-108 6305.55,-140.44 4640.28,-155.87 4133.09,-159.9"/>
<polygon fill="black" stroke="black" points="4122.78,-159.98 4132.75,-155.4 4127.78,-159.94 4132.78,-159.9 4132.78,-159.9 4132.78,-159.9 4127.78,-159.94 4132.82,-164.4 4122.78,-159.98 4122.78,-159.98"/>
</g>
<!-- src.deepLearning.encoding.encoder.table -->
<g id="node31" class="node">
<title>src.deepLearning.encoding.encoder.table</title>
<polygon fill="none" stroke="black" points="8186.5,-36 7947.5,-36 7947.5,0 8186.5,0 8186.5,-36"/>
<text text-anchor="middle" x="8067" y="-14.3" font-family="Times New Roman,serif" font-size="14.00">src.deepLearning.encoding.encoder.table</text>
</g>
</g>
</svg>
